# xmcd CD database file
#
# Track frame offsets:
#	150
#	26673
#	51247
#	71230
#	89524
#	113186
#	131811
#	145144
#	158786
#	181219
#	192486
#	212748
#	239624
#	268274
#
# Disc length: 3842 seconds
#
# Revision: 2
# Processed by: cddbd v1.5.2PL0 Copyright (c) Steve Scherf et al.
# Submitted via: CDex 1.70beta3
#
DISCID=dd0f000e
DTITLE=いきものがかり - 桜咲く街物語
DYEAR=2007
DGENRE=JPop
TTITLE0=SAKURA
TTITLE1=KIRA★KIRA★TRAIN
TTITLE2=HANABI
TTITLE3=君と歩いた季節
TTITLE4=コイスルオトメ
TTITLE5=流星ミラクル
TTITLE6=青春のとびら
TTITLE7=ひなげし
TTITLE8=ホットミルク
TTITLE9=いろはにほへと
TTITLE10=うるわしきひと
TTITLE11=夏・コイ
TTITLE12=タユムコトナキナガレノナカデ
TTITLE13=SAKURA-acoustic version-
EXTD=YEAR: 2007
EXTT0=
EXTT1=
EXTT2=
EXTT3=
EXTT4=
EXTT5=
EXTT6=
EXTT7=
EXTT8=
EXTT9=
EXTT10=
EXTT11=
EXTT12=
EXTT13=
PLAYORDER=
